<svg id="b0c85315-7208-4971-bb1e-581949b6da35" data-name="Layer 1" xmlns="http://www.w3.org/2000/svg" viewBox="0 0 1047.86 321.02"><title>company-logo</title><path d="M364.13,319.43V278.62h7.66v34.43h31.92v6.38Z" style="fill:#cececd"/><path d="M457,321c-14.46,0-23.84-10.42-23.84-21.26v-1.35c0-11,9.38-21.26,23.84-21.26s23.9,10.23,23.9,21.26v1.35C480.85,310.6,471.47,321,457,321Zm16.18-22.49c0-7.9-5.77-14.95-16.18-14.95s-16.12,7.05-16.12,14.95v1c0,7.91,5.7,15.08,16.12,15.08s16.18-7.17,16.18-15.08Z" style="fill:#cececd"/><path d="M553.51,319.43l-1.17-5.52c-3.92,4.54-9.5,7.11-16.42,7.11-14.46,0-23.84-9.93-23.84-21.26V299c0-11.58,10.24-21.87,25.19-21.87,9.19,0,16.66,3.8,20.71,8.15l-4.78,4.84a24.25,24.25,0,0,0-16-6.56c-11.39,0-17.4,7.29-17.4,15.26v.67c0,8,6.44,15.08,16.85,15.08,7.91,0,13.55-4.84,13.55-9.75v-.42H537.63v-6.07h20.78v21.08Z" style="fill:#cececd"/><path d="M614.46,321c-14.46,0-23.83-10.42-23.83-21.26v-1.35c0-11,9.37-21.26,23.83-21.26s23.9,10.23,23.9,21.26v1.35C638.36,310.6,629,321,614.46,321Zm16.18-22.49c0-7.9-5.76-14.95-16.18-14.95s-16.11,7.05-16.11,14.95v1c0,7.91,5.7,15.08,16.11,15.08s16.18-7.17,16.18-15.08Z" style="fill:#cececd"/><path d="M701.84,309.73c11.72,0,11.72-18.16,0-18.16s-11.7,18.16,0,18.16Z" style="fill:#cececd"/><path d="M292.16,309.73c11.7,0,11.7-18.16,0-18.16s-11.72,18.16,0,18.16Z" style="fill:#cececd"/><path d="M115.36,271.41c-31.68,16.77-60.92,6.08-74.6-19.76L6.5,187c-13.67-25.84-6.07-56,25.6-72.8,31.23-16.54,57.05-6.33,70.26,18.6l7.73,14.61L81.33,162.58,74,148.65c-5.47-10.33-15.11-13.86-27-7.56s-14.28,16.48-9.17,26.14l37,69.87c5,9.44,14.75,13.19,26.66,6.89s14.4-16.26,8.93-26.59L103,203.47l28.75-15.22,7.73,14.6C152.67,227.79,146.59,254.88,115.36,271.41Z" style="fill:#cececd"/><path d="M236.84,219.68c-33,11.07-59.65-2.78-69.28-31.46L144,117.85c-9.54-28.44,3.35-55.55,36.37-66.63C213.58,40.06,240,54,249.51,82.43l23.61,70.37C282.74,181.48,270.09,208.52,236.84,219.68ZM214.16,92.15c-3.64-10.85-12.57-15.89-24.14-12-11.33,3.8-15.41,13.21-11.77,24.06l24.91,74.22c3.64,10.85,12.57,15.89,23.89,12.09,11.57-3.88,15.65-13.29,12-24.14Z" style="fill:#cececd"/><path d="M429.9,173.36l-17-118.76L410,93.79l-8.54,83.65-26.92,3.86-30.72-78-13.5-36.83,17,118.75-32.2,4.63L291.12,22.26l48.31-6.94L371.8,97.73l10.26,28.57L384.13,96l7.63-88.15L439.82.92l24.05,167.57Z" style="fill:#cececd"/><path d="M554.05,108.69l-24.89-.91-2.31,62.74-36.33-1.33L496.74,0,558,2.25c28.45,1,42.84,18.11,41.9,43.51L599,68.62C598.1,93.77,582.5,109.74,554.05,108.69Zm11-63.45c.34-9.14-3-14.35-12.43-14.7L532,29.79l-1.87,51.06,20.57.75c9.4.35,13.15-4.6,13.48-13.75Z" style="fill:#cececd"/><path d="M679.84,186.44l-1.44-34.28-34.59-5.83-12.6,31.9-33.59-5.66L664.89,12.23,705,19l10.69,173.49ZM676.62,61.9l-23.06,58.75,24.56,4.14Z" style="fill:#cececd"/><path d="M815.37,224.38l-13.9-76.22-5-30.87L766.2,207.93l-31.58-10.57L788.34,36.82,817,46.41l12.45,77.35,4.23,30.63L864.51,62.3l31.1,10.41L841.89,233.25Z" style="fill:#cececd"/><path d="M962.22,215.2l-32.77,62-32.14-17,32.77-62,7.65-108.08L971.44,108l-8.52,71.1,52.8-47.71,32.14,17Z" style="fill:#cececd"/></svg>