<svg id="afd6339c-382a-4598-bda8-9ad3cac84755" data-name="Layer 1" xmlns="http://www.w3.org/2000/svg"
    viewBox="0 0 400 400">
    <title>linkedin</title>
    <path fill="#fff"
        d="M0,0V400H400V0ZM157.43,279.42H118.52V158.82h38.91Zm-19.67-140h-.22c-13.83,0-22.91-9.51-22.91-21.39,0-12.11,9.3-21.4,23.56-21.4,14.05,0,22.91,9.29,23.13,21.4C161.32,129.86,152.24,139.37,137.76,139.37ZM301.37,279.42H262.46V213.29c0-19.46-9.51-27.24-21.18-27.24s-21.61,7.78-21.61,23.35v70h-38.9V186.05s-.65-23.12-.65-27.23h38.25l1.3,16.64c7.78-11.67,19.45-20.53,35-20.53,27.24,0,46.69,19.45,46.69,54.47Z" />
</svg>